<svg width="390" height="575" viewBox="0 0 390 575" fill="none" xmlns="http://www.w3.org/2000/svg">
<path d="M81.9782 360V340.4H89.1742C90.7422 340.4 92.0302 340.671 93.0382 341.212C94.0649 341.735 94.8302 342.453 95.3342 343.368C95.8382 344.264 96.0902 345.263 96.0902 346.364C96.0902 347.559 95.7729 348.651 95.1382 349.64C94.5222 350.629 93.5516 351.348 92.2262 351.796L96.2862 360H92.1702L88.5302 352.272H85.5622V360H81.9782ZM85.5622 349.64H88.9502C90.1449 349.64 91.0222 349.351 91.5822 348.772C92.1422 348.193 92.4222 347.428 92.4222 346.476C92.4222 345.543 92.1422 344.796 91.5822 344.236C91.0409 343.676 90.1542 343.396 88.9222 343.396H85.5622V349.64ZM105.24 360.336C103.84 360.336 102.599 360.037 101.516 359.44C100.433 358.843 99.5839 358.003 98.9679 356.92C98.3519 355.837 98.0439 354.587 98.0439 353.168C98.0439 351.731 98.3425 350.452 98.9399 349.332C99.5559 348.212 100.396 347.344 101.46 346.728C102.543 346.093 103.812 345.776 105.268 345.776C106.631 345.776 107.835 346.075 108.88 346.672C109.925 347.269 110.737 348.091 111.316 349.136C111.913 350.163 112.212 351.311 112.212 352.58C112.212 352.785 112.203 353 112.184 353.224C112.184 353.448 112.175 353.681 112.156 353.924H101.6C101.675 355.007 102.048 355.856 102.72 356.472C103.411 357.088 104.241 357.396 105.212 357.396C105.94 357.396 106.547 357.237 107.032 356.92C107.536 356.584 107.909 356.155 108.152 355.632H111.792C111.531 356.509 111.092 357.312 110.476 358.04C109.879 358.749 109.132 359.309 108.236 359.72C107.359 360.131 106.36 360.336 105.24 360.336ZM105.268 348.688C104.391 348.688 103.616 348.94 102.944 349.444C102.272 349.929 101.843 350.676 101.656 351.684H108.572C108.516 350.769 108.18 350.041 107.564 349.5C106.948 348.959 106.183 348.688 105.268 348.688ZM120.966 360.336C119.734 360.336 118.652 360.14 117.718 359.748C116.785 359.337 116.038 358.777 115.478 358.068C114.918 357.359 114.582 356.537 114.47 355.604H118.082C118.194 356.145 118.493 356.612 118.978 357.004C119.482 357.377 120.126 357.564 120.91 357.564C121.694 357.564 122.264 357.405 122.618 357.088C122.992 356.771 123.178 356.407 123.178 355.996C123.178 355.399 122.917 354.997 122.394 354.792C121.872 354.568 121.144 354.353 120.21 354.148C119.613 354.017 119.006 353.859 118.39 353.672C117.774 353.485 117.205 353.252 116.682 352.972C116.178 352.673 115.768 352.3 115.45 351.852C115.133 351.385 114.974 350.816 114.974 350.144C114.974 348.912 115.46 347.876 116.43 347.036C117.42 346.196 118.801 345.776 120.574 345.776C122.217 345.776 123.524 346.159 124.494 346.924C125.484 347.689 126.072 348.744 126.258 350.088H122.87C122.665 349.061 121.89 348.548 120.546 348.548C119.874 348.548 119.352 348.679 118.978 348.94C118.624 349.201 118.446 349.528 118.446 349.92C118.446 350.331 118.717 350.657 119.258 350.9C119.8 351.143 120.518 351.367 121.414 351.572C122.385 351.796 123.272 352.048 124.074 352.328C124.896 352.589 125.549 352.991 126.034 353.532C126.52 354.055 126.762 354.811 126.762 355.8C126.781 356.659 126.557 357.433 126.09 358.124C125.624 358.815 124.952 359.356 124.074 359.748C123.197 360.14 122.161 360.336 120.966 360.336ZM135.145 360.336C133.409 360.336 132.065 359.795 131.113 358.712C130.18 357.629 129.713 356.043 129.713 353.952V346.112H133.269V353.616C133.269 354.811 133.512 355.725 133.997 356.36C134.483 356.995 135.248 357.312 136.293 357.312C137.283 357.312 138.095 356.957 138.729 356.248C139.383 355.539 139.709 354.549 139.709 353.28V346.112H143.293V360H140.129L139.849 357.648C139.42 358.469 138.795 359.123 137.973 359.608C137.171 360.093 136.228 360.336 135.145 360.336ZM146.972 360V339.84H150.556V360H146.972ZM160.406 360C158.95 360 157.784 359.645 156.906 358.936C156.029 358.227 155.59 356.967 155.59 355.156V349.108H153.21V346.112H155.59L156.01 342.388H159.174V346.112H162.926V349.108H159.174V355.184C159.174 355.856 159.314 356.323 159.594 356.584C159.893 356.827 160.397 356.948 161.106 356.948H162.842V360H160.406ZM172.759 360V340.4H176.343L185.555 354.204V340.4H189.139V360H185.555L176.343 346.224V360H172.759ZM199.519 360.336C198.175 360.336 196.962 360.028 195.879 359.412C194.815 358.796 193.966 357.947 193.331 356.864C192.715 355.763 192.407 354.493 192.407 353.056C192.407 351.619 192.724 350.359 193.359 349.276C193.994 348.175 194.843 347.316 195.907 346.7C196.99 346.084 198.203 345.776 199.547 345.776C200.872 345.776 202.067 346.084 203.131 346.7C204.214 347.316 205.063 348.175 205.679 349.276C206.314 350.359 206.631 351.619 206.631 353.056C206.631 354.493 206.314 355.763 205.679 356.864C205.063 357.947 204.214 358.796 203.131 359.412C202.048 360.028 200.844 360.336 199.519 360.336ZM199.519 357.228C200.452 357.228 201.264 356.883 201.955 356.192C202.646 355.483 202.991 354.437 202.991 353.056C202.991 351.675 202.646 350.639 201.955 349.948C201.264 349.239 200.462 348.884 199.547 348.884C198.595 348.884 197.774 349.239 197.083 349.948C196.411 350.639 196.075 351.675 196.075 353.056C196.075 354.437 196.411 355.483 197.083 356.192C197.774 356.883 198.586 357.228 199.519 357.228ZM215.477 360C214.021 360 212.854 359.645 211.977 358.936C211.099 358.227 210.661 356.967 210.661 355.156V349.108H208.281V346.112H210.661L211.081 342.388H214.245V346.112H217.997V349.108H214.245V355.184C214.245 355.856 214.385 356.323 214.665 356.584C214.963 356.827 215.467 356.948 216.177 356.948H217.913V360H215.477ZM227.83 360V340.4H240.486V343.284H231.414V348.772H238.75V351.6H231.414V360H227.83ZM249.093 360.336C247.749 360.336 246.536 360.028 245.453 359.412C244.389 358.796 243.54 357.947 242.905 356.864C242.289 355.763 241.981 354.493 241.981 353.056C241.981 351.619 242.299 350.359 242.933 349.276C243.568 348.175 244.417 347.316 245.481 346.7C246.564 346.084 247.777 345.776 249.121 345.776C250.447 345.776 251.641 346.084 252.705 346.7C253.788 347.316 254.637 348.175 255.253 349.276C255.888 350.359 256.205 351.619 256.205 353.056C256.205 354.493 255.888 355.763 255.253 356.864C254.637 357.947 253.788 358.796 252.705 359.412C251.623 360.028 250.419 360.336 249.093 360.336ZM249.093 357.228C250.027 357.228 250.839 356.883 251.529 356.192C252.22 355.483 252.565 354.437 252.565 353.056C252.565 351.675 252.22 350.639 251.529 349.948C250.839 349.239 250.036 348.884 249.121 348.884C248.169 348.884 247.348 349.239 246.657 349.948C245.985 350.639 245.649 351.675 245.649 353.056C245.649 354.437 245.985 355.483 246.657 356.192C247.348 356.883 248.16 357.228 249.093 357.228ZM264.618 360.336C262.882 360.336 261.538 359.795 260.586 358.712C259.653 357.629 259.186 356.043 259.186 353.952V346.112H262.742V353.616C262.742 354.811 262.985 355.725 263.47 356.36C263.955 356.995 264.721 357.312 265.766 357.312C266.755 357.312 267.567 356.957 268.202 356.248C268.855 355.539 269.182 354.549 269.182 353.28V346.112H272.766V360H269.602L269.322 357.648C268.893 358.469 268.267 359.123 267.446 359.608C266.643 360.093 265.701 360.336 264.618 360.336ZM276.445 360V346.112H279.609L279.889 348.464C280.318 347.643 280.934 346.989 281.737 346.504C282.558 346.019 283.52 345.776 284.621 345.776C286.338 345.776 287.673 346.317 288.625 347.4C289.577 348.483 290.053 350.069 290.053 352.16V360H286.469V352.496C286.469 351.301 286.226 350.387 285.741 349.752C285.256 349.117 284.5 348.8 283.473 348.8C282.465 348.8 281.634 349.155 280.981 349.864C280.346 350.573 280.029 351.563 280.029 352.832V360H276.445ZM299.864 360.336C298.557 360.336 297.391 360.019 296.364 359.384C295.337 358.749 294.525 357.881 293.928 356.78C293.331 355.679 293.032 354.428 293.032 353.028C293.032 351.628 293.331 350.387 293.928 349.304C294.525 348.203 295.337 347.344 296.364 346.728C297.391 346.093 298.557 345.776 299.864 345.776C300.909 345.776 301.824 345.972 302.608 346.364C303.392 346.756 304.027 347.307 304.512 348.016V339.84H308.096V360H304.904L304.512 358.012C304.064 358.628 303.467 359.169 302.72 359.636C301.992 360.103 301.04 360.336 299.864 360.336ZM300.62 357.2C301.777 357.2 302.72 356.817 303.448 356.052C304.195 355.268 304.568 354.269 304.568 353.056C304.568 351.843 304.195 350.853 303.448 350.088C302.72 349.304 301.777 348.912 300.62 348.912C299.481 348.912 298.539 349.295 297.792 350.06C297.045 350.825 296.672 351.815 296.672 353.028C296.672 354.241 297.045 355.24 297.792 356.024C298.539 356.808 299.481 357.2 300.62 357.2Z" fill="black"/>
<path d="M73.7311 400V387.4H78.1411C79.1251 387.4 79.9411 387.568 80.5891 387.904C81.2371 388.228 81.7171 388.678 82.0291 389.254C82.3531 389.818 82.5151 390.46 82.5151 391.18C82.5151 391.864 82.3591 392.494 82.0471 393.07C81.7471 393.634 81.2731 394.084 80.6251 394.42C79.9771 394.756 79.1491 394.924 78.1411 394.924H75.6391V400H73.7311ZM75.6391 393.358H78.0511C78.9511 393.358 79.5931 393.166 79.9771 392.782C80.3731 392.386 80.5711 391.852 80.5711 391.18C80.5711 390.484 80.3731 389.944 79.9771 389.56C79.5931 389.164 78.9511 388.966 78.0511 388.966H75.6391V393.358ZM84.329 400V387.04H86.237V400H84.329ZM92.8293 400.216C91.9533 400.216 91.1733 400.024 90.4893 399.64C89.8173 399.244 89.2893 398.698 88.9053 398.002C88.5213 397.306 88.3293 396.496 88.3293 395.572C88.3293 394.636 88.5153 393.814 88.8873 393.106C89.2713 392.398 89.7993 391.846 90.4713 391.45C91.1553 391.054 91.9473 390.856 92.8473 390.856C93.7233 390.856 94.4853 391.054 95.1333 391.45C95.7813 391.834 96.2853 392.35 96.6453 392.998C97.0053 393.646 97.1853 394.36 97.1853 395.14C97.1853 395.26 97.1793 395.392 97.1673 395.536C97.1673 395.668 97.1613 395.818 97.1493 395.986H90.2013C90.2613 396.85 90.5433 397.51 91.0473 397.966C91.5633 398.41 92.1573 398.632 92.8293 398.632C93.3693 398.632 93.8193 398.512 94.1793 398.272C94.5513 398.02 94.8273 397.684 95.0073 397.264H96.9153C96.6753 398.104 96.1953 398.806 95.4753 399.37C94.7673 399.934 93.8853 400.216 92.8293 400.216ZM92.8293 392.422C92.1933 392.422 91.6293 392.614 91.1373 392.998C90.6453 393.37 90.3453 393.934 90.2373 394.69H95.2773C95.2413 393.994 94.9953 393.442 94.5393 393.034C94.0833 392.626 93.5133 392.422 92.8293 392.422ZM102.189 400.216C101.433 400.216 100.809 400.09 100.317 399.838C99.825 399.586 99.459 399.256 99.219 398.848C98.979 398.428 98.859 397.972 98.859 397.48C98.859 396.616 99.195 395.932 99.867 395.428C100.539 394.924 101.499 394.672 102.747 394.672H105.087V394.51C105.087 393.814 104.895 393.292 104.511 392.944C104.139 392.596 103.653 392.422 103.053 392.422C102.525 392.422 102.063 392.554 101.667 392.818C101.283 393.07 101.049 393.448 100.965 393.952H99.057C99.117 393.304 99.333 392.752 99.705 392.296C100.089 391.828 100.569 391.474 101.145 391.234C101.733 390.982 102.375 390.856 103.071 390.856C104.319 390.856 105.285 391.186 105.969 391.846C106.653 392.494 106.995 393.382 106.995 394.51V400H105.339L105.177 398.47C104.925 398.962 104.559 399.376 104.079 399.712C103.599 400.048 102.969 400.216 102.189 400.216ZM102.567 398.668C103.083 398.668 103.515 398.548 103.863 398.308C104.223 398.056 104.499 397.726 104.691 397.318C104.895 396.91 105.021 396.46 105.069 395.968H102.945C102.189 395.968 101.649 396.1 101.325 396.364C101.013 396.628 100.857 396.958 100.857 397.354C100.857 397.762 101.007 398.086 101.307 398.326C101.619 398.554 102.039 398.668 102.567 398.668ZM112.784 400.216C111.656 400.216 110.726 399.94 109.994 399.388C109.262 398.836 108.842 398.104 108.734 397.192H110.66C110.756 397.6 110.984 397.954 111.344 398.254C111.704 398.542 112.178 398.686 112.766 398.686C113.342 398.686 113.762 398.566 114.026 398.326C114.29 398.086 114.422 397.81 114.422 397.498C114.422 397.042 114.236 396.736 113.864 396.58C113.504 396.412 113 396.262 112.352 396.13C111.848 396.022 111.344 395.878 110.84 395.698C110.348 395.518 109.934 395.266 109.598 394.942C109.274 394.606 109.112 394.156 109.112 393.592C109.112 392.812 109.412 392.164 110.012 391.648C110.612 391.12 111.452 390.856 112.532 390.856C113.528 390.856 114.332 391.096 114.944 391.576C115.568 392.056 115.934 392.734 116.042 393.61H114.206C114.146 393.226 113.966 392.926 113.666 392.71C113.378 392.494 112.988 392.386 112.496 392.386C112.016 392.386 111.644 392.488 111.38 392.692C111.116 392.884 110.984 393.136 110.984 393.448C110.984 393.76 111.164 394.006 111.524 394.186C111.896 394.366 112.382 394.528 112.982 394.672C113.582 394.804 114.134 394.96 114.638 395.14C115.154 395.308 115.568 395.56 115.88 395.896C116.192 396.232 116.348 396.724 116.348 397.372C116.36 398.188 116.042 398.866 115.394 399.406C114.758 399.946 113.888 400.216 112.784 400.216ZM122.607 400.216C121.731 400.216 120.951 400.024 120.267 399.64C119.595 399.244 119.067 398.698 118.683 398.002C118.299 397.306 118.107 396.496 118.107 395.572C118.107 394.636 118.293 393.814 118.665 393.106C119.049 392.398 119.577 391.846 120.249 391.45C120.933 391.054 121.725 390.856 122.625 390.856C123.501 390.856 124.263 391.054 124.911 391.45C125.559 391.834 126.063 392.35 126.423 392.998C126.783 393.646 126.963 394.36 126.963 395.14C126.963 395.26 126.957 395.392 126.945 395.536C126.945 395.668 126.939 395.818 126.927 395.986H119.979C120.039 396.85 120.321 397.51 120.825 397.966C121.341 398.41 121.935 398.632 122.607 398.632C123.147 398.632 123.597 398.512 123.957 398.272C124.329 398.02 124.605 397.684 124.785 397.264H126.693C126.453 398.104 125.973 398.806 125.253 399.37C124.545 399.934 123.663 400.216 122.607 400.216ZM122.607 392.422C121.971 392.422 121.407 392.614 120.915 392.998C120.423 393.37 120.123 393.934 120.015 394.69H125.055C125.019 393.994 124.773 393.442 124.317 393.034C123.861 392.626 123.291 392.422 122.607 392.422ZM137.221 400C136.345 400 135.649 399.79 135.133 399.37C134.617 398.938 134.359 398.176 134.359 397.084V392.674H132.829V391.072H134.359L134.593 388.804H136.267V391.072H138.787V392.674H136.267V397.084C136.267 397.576 136.369 397.918 136.573 398.11C136.789 398.29 137.155 398.38 137.671 398.38H138.697V400H137.221ZM140.755 400V391.072H142.465L142.627 392.764C142.939 392.176 143.371 391.714 143.923 391.378C144.487 391.03 145.165 390.856 145.957 390.856V392.854H145.435C144.907 392.854 144.433 392.944 144.013 393.124C143.605 393.292 143.275 393.586 143.023 394.006C142.783 394.414 142.663 394.984 142.663 395.716V400H140.755ZM148.637 403.96L150.779 399.262H150.257L146.729 391.072H148.799L151.535 397.678L154.397 391.072H156.413L150.653 403.96H148.637ZM165.541 400.216C164.785 400.216 164.161 400.09 163.669 399.838C163.177 399.586 162.811 399.256 162.571 398.848C162.331 398.428 162.211 397.972 162.211 397.48C162.211 396.616 162.547 395.932 163.219 395.428C163.891 394.924 164.851 394.672 166.099 394.672H168.439V394.51C168.439 393.814 168.247 393.292 167.863 392.944C167.491 392.596 167.005 392.422 166.405 392.422C165.877 392.422 165.415 392.554 165.019 392.818C164.635 393.07 164.401 393.448 164.317 393.952H162.409C162.469 393.304 162.685 392.752 163.057 392.296C163.441 391.828 163.921 391.474 164.497 391.234C165.085 390.982 165.727 390.856 166.423 390.856C167.671 390.856 168.637 391.186 169.321 391.846C170.005 392.494 170.347 393.382 170.347 394.51V400H168.691L168.529 398.47C168.277 398.962 167.911 399.376 167.431 399.712C166.951 400.048 166.321 400.216 165.541 400.216ZM165.919 398.668C166.435 398.668 166.867 398.548 167.215 398.308C167.575 398.056 167.851 397.726 168.043 397.318C168.247 396.91 168.373 396.46 168.421 395.968H166.297C165.541 395.968 165.001 396.1 164.677 396.364C164.365 396.628 164.209 396.958 164.209 397.354C164.209 397.762 164.359 398.086 164.659 398.326C164.971 398.554 165.391 398.668 165.919 398.668ZM176.225 397.264C175.757 397.264 175.325 397.21 174.929 397.102L174.155 397.858C174.287 397.942 174.449 398.014 174.641 398.074C174.833 398.134 175.103 398.188 175.451 398.236C175.799 398.284 176.273 398.332 176.873 398.38C178.061 398.488 178.919 398.776 179.447 399.244C179.975 399.7 180.239 400.312 180.239 401.08C180.239 401.608 180.095 402.106 179.807 402.574C179.531 403.054 179.093 403.438 178.493 403.726C177.905 404.026 177.149 404.176 176.225 404.176C174.977 404.176 173.963 403.936 173.183 403.456C172.415 402.988 172.031 402.274 172.031 401.314C172.031 400.942 172.127 400.57 172.319 400.198C172.523 399.838 172.841 399.496 173.273 399.172C173.021 399.064 172.799 398.95 172.607 398.83C172.427 398.698 172.265 398.566 172.121 398.434V398.002L173.669 396.418C172.973 395.818 172.625 395.032 172.625 394.06C172.625 393.472 172.763 392.938 173.039 392.458C173.327 391.966 173.741 391.576 174.281 391.288C174.821 391 175.469 390.856 176.225 390.856C176.729 390.856 177.197 390.928 177.629 391.072H180.959V392.332L179.375 392.422C179.663 392.914 179.807 393.46 179.807 394.06C179.807 394.66 179.663 395.2 179.375 395.68C179.099 396.16 178.691 396.544 178.151 396.832C177.623 397.12 176.981 397.264 176.225 397.264ZM176.225 395.77C176.777 395.77 177.221 395.626 177.557 395.338C177.905 395.038 178.079 394.618 178.079 394.078C178.079 393.526 177.905 393.106 177.557 392.818C177.221 392.53 176.777 392.386 176.225 392.386C175.661 392.386 175.205 392.53 174.857 392.818C174.521 393.106 174.353 393.526 174.353 394.078C174.353 394.618 174.521 395.038 174.857 395.338C175.205 395.626 175.661 395.77 176.225 395.77ZM173.831 401.134C173.831 401.65 174.059 402.034 174.515 402.286C174.971 402.55 175.541 402.682 176.225 402.682C176.885 402.682 177.419 402.538 177.827 402.25C178.235 401.974 178.439 401.602 178.439 401.134C178.439 400.786 178.301 400.486 178.025 400.234C177.749 399.994 177.227 399.844 176.459 399.784C175.883 399.748 175.373 399.694 174.929 399.622C174.509 399.85 174.221 400.096 174.065 400.36C173.909 400.624 173.831 400.882 173.831 401.134ZM185.685 400.216C184.929 400.216 184.305 400.09 183.813 399.838C183.321 399.586 182.955 399.256 182.715 398.848C182.475 398.428 182.355 397.972 182.355 397.48C182.355 396.616 182.691 395.932 183.363 395.428C184.035 394.924 184.995 394.672 186.243 394.672H188.583V394.51C188.583 393.814 188.391 393.292 188.007 392.944C187.635 392.596 187.149 392.422 186.549 392.422C186.021 392.422 185.559 392.554 185.163 392.818C184.779 393.07 184.545 393.448 184.461 393.952H182.553C182.613 393.304 182.829 392.752 183.201 392.296C183.585 391.828 184.065 391.474 184.641 391.234C185.229 390.982 185.871 390.856 186.567 390.856C187.815 390.856 188.781 391.186 189.465 391.846C190.149 392.494 190.491 393.382 190.491 394.51V400H188.835L188.673 398.47C188.421 398.962 188.055 399.376 187.575 399.712C187.095 400.048 186.465 400.216 185.685 400.216ZM186.063 398.668C186.579 398.668 187.011 398.548 187.359 398.308C187.719 398.056 187.995 397.726 188.187 397.318C188.391 396.91 188.517 396.46 188.565 395.968H186.441C185.685 395.968 185.145 396.1 184.821 396.364C184.509 396.628 184.353 396.958 184.353 397.354C184.353 397.762 184.503 398.086 184.803 398.326C185.115 398.554 185.535 398.668 186.063 398.668ZM193.796 389.38C193.436 389.38 193.136 389.272 192.896 389.056C192.668 388.828 192.554 388.546 192.554 388.21C192.554 387.874 192.668 387.598 192.896 387.382C193.136 387.154 193.436 387.04 193.796 387.04C194.156 387.04 194.45 387.154 194.678 387.382C194.918 387.598 195.038 387.874 195.038 388.21C195.038 388.546 194.918 388.828 194.678 389.056C194.45 389.272 194.156 389.38 193.796 389.38ZM192.842 400V391.072H194.75V400H192.842ZM197.269 400V391.072H198.961L199.105 392.638C199.381 392.086 199.783 391.654 200.311 391.342C200.851 391.018 201.469 390.856 202.165 390.856C203.245 390.856 204.091 391.192 204.703 391.864C205.327 392.536 205.639 393.538 205.639 394.87V400H203.749V395.068C203.749 393.34 203.041 392.476 201.625 392.476C200.917 392.476 200.329 392.728 199.861 393.232C199.405 393.736 199.177 394.456 199.177 395.392V400H197.269ZM214.203 400L211.575 391.072H213.483L215.211 397.804L217.155 391.072H219.279L221.223 397.804L222.951 391.072H224.859L222.231 400H220.269L218.217 392.98L216.165 400H214.203ZM227.511 389.38C227.151 389.38 226.851 389.272 226.611 389.056C226.383 388.828 226.269 388.546 226.269 388.21C226.269 387.874 226.383 387.598 226.611 387.382C226.851 387.154 227.151 387.04 227.511 387.04C227.871 387.04 228.165 387.154 228.393 387.382C228.633 387.598 228.753 387.874 228.753 388.21C228.753 388.546 228.633 388.828 228.393 389.056C228.165 389.272 227.871 389.38 227.511 389.38ZM226.557 400V391.072H228.465V400H226.557ZM234.727 400C233.851 400 233.155 399.79 232.639 399.37C232.123 398.938 231.865 398.176 231.865 397.084V392.674H230.335V391.072H231.865L232.099 388.804H233.773V391.072H236.293V392.674H233.773V397.084C233.773 397.576 233.875 397.918 234.079 398.11C234.295 398.29 234.661 398.38 235.177 398.38H236.203V400H234.727ZM238.261 400V387.04H240.169V392.512C240.469 391.996 240.883 391.594 241.411 391.306C241.951 391.006 242.545 390.856 243.193 390.856C244.261 390.856 245.101 391.192 245.713 391.864C246.325 392.536 246.631 393.538 246.631 394.87V400H244.741V395.068C244.741 393.34 244.051 392.476 242.671 392.476C241.951 392.476 241.351 392.728 240.871 393.232C240.403 393.736 240.169 394.456 240.169 395.392V400H238.261ZM256.437 400.216C255.681 400.216 255.057 400.09 254.565 399.838C254.073 399.586 253.707 399.256 253.467 398.848C253.227 398.428 253.107 397.972 253.107 397.48C253.107 396.616 253.443 395.932 254.115 395.428C254.787 394.924 255.747 394.672 256.995 394.672H259.335V394.51C259.335 393.814 259.143 393.292 258.759 392.944C258.387 392.596 257.901 392.422 257.301 392.422C256.773 392.422 256.311 392.554 255.915 392.818C255.531 393.07 255.297 393.448 255.213 393.952H253.305C253.365 393.304 253.581 392.752 253.953 392.296C254.337 391.828 254.817 391.474 255.393 391.234C255.981 390.982 256.623 390.856 257.319 390.856C258.567 390.856 259.533 391.186 260.217 391.846C260.901 392.494 261.243 393.382 261.243 394.51V400H259.587L259.425 398.47C259.173 398.962 258.807 399.376 258.327 399.712C257.847 400.048 257.217 400.216 256.437 400.216ZM256.815 398.668C257.331 398.668 257.763 398.548 258.111 398.308C258.471 398.056 258.747 397.726 258.939 397.318C259.143 396.91 259.269 396.46 259.317 395.968H257.193C256.437 395.968 255.897 396.1 255.573 396.364C255.261 396.628 255.105 396.958 255.105 397.354C255.105 397.762 255.255 398.086 255.555 398.326C255.867 398.554 256.287 398.668 256.815 398.668ZM263.468 400V391.072H265.16L265.304 392.638C265.58 392.086 265.982 391.654 266.51 391.342C267.05 391.018 267.668 390.856 268.364 390.856C269.444 390.856 270.29 391.192 270.902 391.864C271.526 392.536 271.838 393.538 271.838 394.87V400H269.948V395.068C269.948 393.34 269.24 392.476 267.824 392.476C267.116 392.476 266.528 392.728 266.06 393.232C265.604 393.736 265.376 394.456 265.376 395.392V400H263.468ZM278.261 400.216C277.409 400.216 276.641 400.024 275.957 399.64C275.285 399.244 274.751 398.698 274.355 398.002C273.959 397.294 273.761 396.472 273.761 395.536C273.761 394.6 273.959 393.784 274.355 393.088C274.763 392.38 275.309 391.834 275.993 391.45C276.677 391.054 277.439 390.856 278.279 390.856C279.131 390.856 279.893 391.054 280.565 391.45C281.249 391.834 281.789 392.38 282.185 393.088C282.593 393.784 282.797 394.6 282.797 395.536C282.797 396.472 282.593 397.294 282.185 398.002C281.789 398.698 281.249 399.244 280.565 399.64C279.881 400.024 279.113 400.216 278.261 400.216ZM278.261 398.578C278.717 398.578 279.137 398.464 279.521 398.236C279.917 398.008 280.235 397.672 280.475 397.228C280.715 396.772 280.835 396.208 280.835 395.536C280.835 394.864 280.715 394.306 280.475 393.862C280.247 393.406 279.935 393.064 279.539 392.836C279.155 392.608 278.735 392.494 278.279 392.494C277.823 392.494 277.397 392.608 277.001 392.836C276.617 393.064 276.305 393.406 276.065 393.862C275.825 394.306 275.705 394.864 275.705 395.536C275.705 396.208 275.825 396.772 276.065 397.228C276.305 397.672 276.617 398.008 277.001 398.236C277.385 398.464 277.805 398.578 278.261 398.578ZM288.253 400C287.377 400 286.681 399.79 286.165 399.37C285.649 398.938 285.391 398.176 285.391 397.084V392.674H283.861V391.072H285.391L285.625 388.804H287.299V391.072H289.819V392.674H287.299V397.084C287.299 397.576 287.401 397.918 287.605 398.11C287.821 398.29 288.187 398.38 288.703 398.38H289.729V400H288.253ZM291.786 400V387.04H293.694V392.512C293.994 391.996 294.408 391.594 294.936 391.306C295.476 391.006 296.07 390.856 296.718 390.856C297.786 390.856 298.626 391.192 299.238 391.864C299.85 392.536 300.156 393.538 300.156 394.87V400H298.266V395.068C298.266 393.34 297.576 392.476 296.196 392.476C295.476 392.476 294.876 392.728 294.396 393.232C293.928 393.736 293.694 394.456 293.694 395.392V400H291.786ZM306.579 400.216C305.703 400.216 304.923 400.024 304.239 399.64C303.567 399.244 303.039 398.698 302.655 398.002C302.271 397.306 302.079 396.496 302.079 395.572C302.079 394.636 302.265 393.814 302.637 393.106C303.021 392.398 303.549 391.846 304.221 391.45C304.905 391.054 305.697 390.856 306.597 390.856C307.473 390.856 308.235 391.054 308.883 391.45C309.531 391.834 310.035 392.35 310.395 392.998C310.755 393.646 310.935 394.36 310.935 395.14C310.935 395.26 310.929 395.392 310.917 395.536C310.917 395.668 310.911 395.818 310.899 395.986H303.951C304.011 396.85 304.293 397.51 304.797 397.966C305.313 398.41 305.907 398.632 306.579 398.632C307.119 398.632 307.569 398.512 307.929 398.272C308.301 398.02 308.577 397.684 308.757 397.264H310.665C310.425 398.104 309.945 398.806 309.225 399.37C308.517 399.934 307.635 400.216 306.579 400.216ZM306.579 392.422C305.943 392.422 305.379 392.614 304.887 392.998C304.395 393.37 304.095 393.934 303.987 394.69H309.027C308.991 393.994 308.745 393.442 308.289 393.034C307.833 392.626 307.263 392.422 306.579 392.422ZM312.915 400V391.072H314.625L314.787 392.764C315.099 392.176 315.531 391.714 316.083 391.378C316.647 391.03 317.325 390.856 318.117 390.856V392.854H317.595C317.067 392.854 316.593 392.944 316.173 393.124C315.765 393.292 315.435 393.586 315.183 394.006C314.943 394.414 314.823 394.984 314.823 395.716V400H312.915ZM39.3466 427V414.04H41.2546V421.762L44.6746 418.072H46.9606L43.1626 422.122L47.5186 427H45.1066L41.2546 422.428V427H39.3466ZM52.4875 427.216C51.6115 427.216 50.8315 427.024 50.1475 426.64C49.4755 426.244 48.9475 425.698 48.5635 425.002C48.1795 424.306 47.9875 423.496 47.9875 422.572C47.9875 421.636 48.1735 420.814 48.5455 420.106C48.9295 419.398 49.4575 418.846 50.1295 418.45C50.8135 418.054 51.6055 417.856 52.5055 417.856C53.3815 417.856 54.1435 418.054 54.7915 418.45C55.4395 418.834 55.9435 419.35 56.3035 419.998C56.6635 420.646 56.8435 421.36 56.8435 422.14C56.8435 422.26 56.8375 422.392 56.8255 422.536C56.8255 422.668 56.8195 422.818 56.8075 422.986H49.8595C49.9195 423.85 50.2015 424.51 50.7055 424.966C51.2215 425.41 51.8155 425.632 52.4875 425.632C53.0275 425.632 53.4775 425.512 53.8375 425.272C54.2095 425.02 54.4855 424.684 54.6655 424.264H56.5735C56.3335 425.104 55.8535 425.806 55.1335 426.37C54.4255 426.934 53.5435 427.216 52.4875 427.216ZM52.4875 419.422C51.8515 419.422 51.2875 419.614 50.7955 419.998C50.3035 420.37 50.0035 420.934 49.8955 421.69H54.9355C54.8995 420.994 54.6535 420.442 54.1975 420.034C53.7415 419.626 53.1715 419.422 52.4875 419.422ZM59.4629 430.96L61.6049 426.262H61.0829L57.5549 418.072H59.6249L62.3609 424.678L65.2229 418.072H67.2389L61.4789 430.96H59.4629ZM70.5896 427L67.9616 418.072H69.8696L71.5976 424.804L73.5416 418.072H75.6656L77.6096 424.804L79.3376 418.072H81.2456L78.6176 427H76.6556L74.6036 419.98L72.5516 427H70.5896ZM86.6593 427.216C85.8073 427.216 85.0393 427.024 84.3553 426.64C83.6833 426.244 83.1493 425.698 82.7533 425.002C82.3573 424.294 82.1593 423.472 82.1593 422.536C82.1593 421.6 82.3573 420.784 82.7533 420.088C83.1613 419.38 83.7073 418.834 84.3913 418.45C85.0753 418.054 85.8373 417.856 86.6773 417.856C87.5293 417.856 88.2913 418.054 88.9633 418.45C89.6473 418.834 90.1873 419.38 90.5833 420.088C90.9913 420.784 91.1953 421.6 91.1953 422.536C91.1953 423.472 90.9913 424.294 90.5833 425.002C90.1873 425.698 89.6473 426.244 88.9633 426.64C88.2793 427.024 87.5113 427.216 86.6593 427.216ZM86.6593 425.578C87.1153 425.578 87.5353 425.464 87.9193 425.236C88.3153 425.008 88.6333 424.672 88.8733 424.228C89.1133 423.772 89.2333 423.208 89.2333 422.536C89.2333 421.864 89.1133 421.306 88.8733 420.862C88.6453 420.406 88.3333 420.064 87.9373 419.836C87.5533 419.608 87.1333 419.494 86.6773 419.494C86.2213 419.494 85.7953 419.608 85.3993 419.836C85.0153 420.064 84.7033 420.406 84.4633 420.862C84.2233 421.306 84.1033 421.864 84.1033 422.536C84.1033 423.208 84.2233 423.772 84.4633 424.228C84.7033 424.672 85.0153 425.008 85.3993 425.236C85.7833 425.464 86.2033 425.578 86.6593 425.578ZM93.2587 427V418.072H94.9687L95.1307 419.764C95.4427 419.176 95.8747 418.714 96.4267 418.378C96.9907 418.03 97.6687 417.856 98.4607 417.856V419.854H97.9387C97.4107 419.854 96.9367 419.944 96.5167 420.124C96.1087 420.292 95.7787 420.586 95.5267 421.006C95.2867 421.414 95.1667 421.984 95.1667 422.716V427H93.2587ZM103.919 427.216C103.055 427.216 102.293 427.012 101.633 426.604C100.973 426.196 100.457 425.638 100.085 424.93C99.7125 424.222 99.5265 423.418 99.5265 422.518C99.5265 421.618 99.7125 420.82 100.085 420.124C100.457 419.416 100.973 418.864 101.633 418.468C102.305 418.06 103.073 417.856 103.937 417.856C104.645 417.856 105.263 417.994 105.791 418.27C106.331 418.546 106.751 418.936 107.051 419.44V414.04H108.959V427H107.249L107.051 425.614C106.763 426.034 106.367 426.406 105.863 426.73C105.359 427.054 104.711 427.216 103.919 427.216ZM104.261 425.56C105.077 425.56 105.743 425.278 106.259 424.714C106.787 424.15 107.051 423.424 107.051 422.536C107.051 421.636 106.787 420.91 106.259 420.358C105.743 419.794 105.077 419.512 104.261 419.512C103.445 419.512 102.773 419.794 102.245 420.358C101.717 420.91 101.453 421.636 101.453 422.536C101.453 423.124 101.573 423.646 101.813 424.102C102.053 424.558 102.383 424.918 102.803 425.182C103.235 425.434 103.721 425.56 104.261 425.56ZM114.928 427.216C113.8 427.216 112.87 426.94 112.138 426.388C111.406 425.836 110.986 425.104 110.878 424.192H112.804C112.9 424.6 113.128 424.954 113.488 425.254C113.848 425.542 114.322 425.686 114.91 425.686C115.486 425.686 115.906 425.566 116.17 425.326C116.434 425.086 116.566 424.81 116.566 424.498C116.566 424.042 116.38 423.736 116.008 423.58C115.648 423.412 115.144 423.262 114.496 423.13C113.992 423.022 113.488 422.878 112.984 422.698C112.492 422.518 112.078 422.266 111.742 421.942C111.418 421.606 111.256 421.156 111.256 420.592C111.256 419.812 111.556 419.164 112.156 418.648C112.756 418.12 113.596 417.856 114.676 417.856C115.672 417.856 116.476 418.096 117.088 418.576C117.712 419.056 118.078 419.734 118.186 420.61H116.35C116.29 420.226 116.11 419.926 115.81 419.71C115.522 419.494 115.132 419.386 114.64 419.386C114.16 419.386 113.788 419.488 113.524 419.692C113.26 419.884 113.128 420.136 113.128 420.448C113.128 420.76 113.308 421.006 113.668 421.186C114.04 421.366 114.526 421.528 115.126 421.672C115.726 421.804 116.278 421.96 116.782 422.14C117.298 422.308 117.712 422.56 118.024 422.896C118.336 423.232 118.492 423.724 118.492 424.372C118.504 425.188 118.186 425.866 117.538 426.406C116.902 426.946 116.032 427.216 114.928 427.216ZM129.286 427.216C128.434 427.216 127.666 427.024 126.982 426.64C126.31 426.244 125.776 425.698 125.38 425.002C124.984 424.294 124.786 423.472 124.786 422.536C124.786 421.6 124.984 420.784 125.38 420.088C125.788 419.38 126.334 418.834 127.018 418.45C127.702 418.054 128.464 417.856 129.304 417.856C130.156 417.856 130.918 418.054 131.59 418.45C132.274 418.834 132.814 419.38 133.21 420.088C133.618 420.784 133.822 421.6 133.822 422.536C133.822 423.472 133.618 424.294 133.21 425.002C132.814 425.698 132.274 426.244 131.59 426.64C130.906 427.024 130.138 427.216 129.286 427.216ZM129.286 425.578C129.742 425.578 130.162 425.464 130.546 425.236C130.942 425.008 131.26 424.672 131.5 424.228C131.74 423.772 131.86 423.208 131.86 422.536C131.86 421.864 131.74 421.306 131.5 420.862C131.272 420.406 130.96 420.064 130.564 419.836C130.18 419.608 129.76 419.494 129.304 419.494C128.848 419.494 128.422 419.608 128.026 419.836C127.642 420.064 127.33 420.406 127.09 420.862C126.85 421.306 126.73 421.864 126.73 422.536C126.73 423.208 126.85 423.772 127.09 424.228C127.33 424.672 127.642 425.008 128.026 425.236C128.41 425.464 128.83 425.578 129.286 425.578ZM135.886 427V418.072H137.596L137.758 419.764C138.07 419.176 138.502 418.714 139.054 418.378C139.618 418.03 140.296 417.856 141.088 417.856V419.854H140.566C140.038 419.854 139.564 419.944 139.144 420.124C138.736 420.292 138.406 420.586 138.154 421.006C137.914 421.414 137.794 421.984 137.794 422.716V427H135.886ZM147.259 427V418.072H148.951L149.113 419.332C149.401 418.876 149.779 418.516 150.247 418.252C150.727 417.988 151.279 417.856 151.903 417.856C153.319 417.856 154.303 418.414 154.855 419.53C155.179 419.014 155.611 418.606 156.151 418.306C156.703 418.006 157.297 417.856 157.933 417.856C159.049 417.856 159.925 418.192 160.561 418.864C161.197 419.536 161.515 420.538 161.515 421.87V427H159.607V422.068C159.607 420.34 158.947 419.476 157.627 419.476C156.955 419.476 156.403 419.728 155.971 420.232C155.551 420.736 155.341 421.456 155.341 422.392V427H153.433V422.068C153.433 420.34 152.767 419.476 151.435 419.476C150.775 419.476 150.229 419.728 149.797 420.232C149.377 420.736 149.167 421.456 149.167 422.392V427H147.259ZM166.771 427.216C166.015 427.216 165.391 427.09 164.899 426.838C164.407 426.586 164.041 426.256 163.801 425.848C163.561 425.428 163.441 424.972 163.441 424.48C163.441 423.616 163.777 422.932 164.449 422.428C165.121 421.924 166.081 421.672 167.329 421.672H169.669V421.51C169.669 420.814 169.477 420.292 169.093 419.944C168.721 419.596 168.235 419.422 167.635 419.422C167.107 419.422 166.645 419.554 166.249 419.818C165.865 420.07 165.631 420.448 165.547 420.952H163.639C163.699 420.304 163.915 419.752 164.287 419.296C164.671 418.828 165.151 418.474 165.727 418.234C166.315 417.982 166.957 417.856 167.653 417.856C168.901 417.856 169.867 418.186 170.551 418.846C171.235 419.494 171.577 420.382 171.577 421.51V427H169.921L169.759 425.47C169.507 425.962 169.141 426.376 168.661 426.712C168.181 427.048 167.551 427.216 166.771 427.216ZM167.149 425.668C167.665 425.668 168.097 425.548 168.445 425.308C168.805 425.056 169.081 424.726 169.273 424.318C169.477 423.91 169.603 423.46 169.651 422.968H167.527C166.771 422.968 166.231 423.1 165.907 423.364C165.595 423.628 165.439 423.958 165.439 424.354C165.439 424.762 165.589 425.086 165.889 425.326C166.201 425.554 166.621 425.668 167.149 425.668ZM174.564 430.96L176.706 426.262H176.184L172.656 418.072H174.726L177.462 424.678L180.324 418.072H182.34L176.58 430.96H174.564ZM188.931 427.216C188.235 427.216 187.617 427.078 187.077 426.802C186.549 426.526 186.129 426.136 185.817 425.632L185.619 427H183.909V414.04H185.817V419.458C186.105 419.038 186.501 418.666 187.005 418.342C187.509 418.018 188.157 417.856 188.949 417.856C189.813 417.856 190.575 418.06 191.235 418.468C191.895 418.876 192.411 419.434 192.783 420.142C193.167 420.85 193.359 421.654 193.359 422.554C193.359 423.454 193.167 424.258 192.783 424.966C192.411 425.662 191.895 426.214 191.235 426.622C190.575 427.018 189.807 427.216 188.931 427.216ZM188.607 425.56C189.423 425.56 190.095 425.284 190.623 424.732C191.151 424.168 191.415 423.436 191.415 422.536C191.415 421.948 191.295 421.426 191.055 420.97C190.815 420.514 190.485 420.16 190.065 419.908C189.645 419.644 189.159 419.512 188.607 419.512C187.791 419.512 187.119 419.794 186.591 420.358C186.075 420.922 185.817 421.648 185.817 422.536C185.817 423.436 186.075 424.168 186.591 424.732C187.119 425.284 187.791 425.56 188.607 425.56ZM199.599 427.216C198.723 427.216 197.943 427.024 197.259 426.64C196.587 426.244 196.059 425.698 195.675 425.002C195.291 424.306 195.099 423.496 195.099 422.572C195.099 421.636 195.285 420.814 195.657 420.106C196.041 419.398 196.569 418.846 197.241 418.45C197.925 418.054 198.717 417.856 199.617 417.856C200.493 417.856 201.255 418.054 201.903 418.45C202.551 418.834 203.055 419.35 203.415 419.998C203.775 420.646 203.955 421.36 203.955 422.14C203.955 422.26 203.949 422.392 203.937 422.536C203.937 422.668 203.931 422.818 203.919 422.986H196.971C197.031 423.85 197.313 424.51 197.817 424.966C198.333 425.41 198.927 425.632 199.599 425.632C200.139 425.632 200.589 425.512 200.949 425.272C201.321 425.02 201.597 424.684 201.777 424.264H203.685C203.445 425.104 202.965 425.806 202.245 426.37C201.537 426.934 200.655 427.216 199.599 427.216ZM199.599 419.422C198.963 419.422 198.399 419.614 197.907 419.998C197.415 420.37 197.115 420.934 197.007 421.69H202.047C202.011 420.994 201.765 420.442 201.309 420.034C200.853 419.626 200.283 419.422 199.599 419.422ZM213.764 427.216C212.684 427.216 211.832 426.88 211.208 426.208C210.596 425.536 210.29 424.534 210.29 423.202V418.072H212.198V423.004C212.198 424.732 212.906 425.596 214.322 425.596C215.03 425.596 215.612 425.344 216.068 424.84C216.524 424.336 216.752 423.616 216.752 422.68V418.072H218.66V427H216.968L216.824 425.434C216.548 425.986 216.14 426.424 215.6 426.748C215.072 427.06 214.46 427.216 213.764 427.216ZM224.651 427.216C223.523 427.216 222.593 426.94 221.861 426.388C221.129 425.836 220.709 425.104 220.601 424.192H222.527C222.623 424.6 222.851 424.954 223.211 425.254C223.571 425.542 224.045 425.686 224.633 425.686C225.209 425.686 225.629 425.566 225.893 425.326C226.157 425.086 226.289 424.81 226.289 424.498C226.289 424.042 226.103 423.736 225.731 423.58C225.371 423.412 224.867 423.262 224.219 423.13C223.715 423.022 223.211 422.878 222.707 422.698C222.215 422.518 221.801 422.266 221.465 421.942C221.141 421.606 220.979 421.156 220.979 420.592C220.979 419.812 221.279 419.164 221.879 418.648C222.479 418.12 223.319 417.856 224.399 417.856C225.395 417.856 226.199 418.096 226.811 418.576C227.435 419.056 227.801 419.734 227.909 420.61H226.073C226.013 420.226 225.833 419.926 225.533 419.71C225.245 419.494 224.855 419.386 224.363 419.386C223.883 419.386 223.511 419.488 223.247 419.692C222.983 419.884 222.851 420.136 222.851 420.448C222.851 420.76 223.031 421.006 223.391 421.186C223.763 421.366 224.249 421.528 224.849 421.672C225.449 421.804 226.001 421.96 226.505 422.14C227.021 422.308 227.435 422.56 227.747 422.896C228.059 423.232 228.215 423.724 228.215 424.372C228.227 425.188 227.909 425.866 227.261 426.406C226.625 426.946 225.755 427.216 224.651 427.216ZM234.474 427.216C233.598 427.216 232.818 427.024 232.134 426.64C231.462 426.244 230.934 425.698 230.55 425.002C230.166 424.306 229.974 423.496 229.974 422.572C229.974 421.636 230.16 420.814 230.532 420.106C230.916 419.398 231.444 418.846 232.116 418.45C232.8 418.054 233.592 417.856 234.492 417.856C235.368 417.856 236.13 418.054 236.778 418.45C237.426 418.834 237.93 419.35 238.29 419.998C238.65 420.646 238.83 421.36 238.83 422.14C238.83 422.26 238.824 422.392 238.812 422.536C238.812 422.668 238.806 422.818 238.794 422.986H231.846C231.906 423.85 232.188 424.51 232.692 424.966C233.208 425.41 233.802 425.632 234.474 425.632C235.014 425.632 235.464 425.512 235.824 425.272C236.196 425.02 236.472 424.684 236.652 424.264H238.56C238.32 425.104 237.84 425.806 237.12 426.37C236.412 426.934 235.53 427.216 234.474 427.216ZM234.474 419.422C233.838 419.422 233.274 419.614 232.782 419.998C232.29 420.37 231.99 420.934 231.882 421.69H236.922C236.886 420.994 236.64 420.442 236.184 420.034C235.728 419.626 235.158 419.422 234.474 419.422ZM248.999 424.264C248.531 424.264 248.099 424.21 247.703 424.102L246.929 424.858C247.061 424.942 247.223 425.014 247.415 425.074C247.607 425.134 247.877 425.188 248.225 425.236C248.573 425.284 249.047 425.332 249.647 425.38C250.835 425.488 251.693 425.776 252.221 426.244C252.749 426.7 253.013 427.312 253.013 428.08C253.013 428.608 252.869 429.106 252.581 429.574C252.305 430.054 251.867 430.438 251.267 430.726C250.679 431.026 249.923 431.176 248.999 431.176C247.751 431.176 246.737 430.936 245.957 430.456C245.189 429.988 244.805 429.274 244.805 428.314C244.805 427.942 244.901 427.57 245.093 427.198C245.297 426.838 245.615 426.496 246.047 426.172C245.795 426.064 245.573 425.95 245.381 425.83C245.201 425.698 245.039 425.566 244.895 425.434V425.002L246.443 423.418C245.747 422.818 245.399 422.032 245.399 421.06C245.399 420.472 245.537 419.938 245.813 419.458C246.101 418.966 246.515 418.576 247.055 418.288C247.595 418 248.243 417.856 248.999 417.856C249.503 417.856 249.971 417.928 250.403 418.072H253.733V419.332L252.149 419.422C252.437 419.914 252.581 420.46 252.581 421.06C252.581 421.66 252.437 422.2 252.149 422.68C251.873 423.16 251.465 423.544 250.925 423.832C250.397 424.12 249.755 424.264 248.999 424.264ZM248.999 422.77C249.551 422.77 249.995 422.626 250.331 422.338C250.679 422.038 250.853 421.618 250.853 421.078C250.853 420.526 250.679 420.106 250.331 419.818C249.995 419.53 249.551 419.386 248.999 419.386C248.435 419.386 247.979 419.53 247.631 419.818C247.295 420.106 247.127 420.526 247.127 421.078C247.127 421.618 247.295 422.038 247.631 422.338C247.979 422.626 248.435 422.77 248.999 422.77ZM246.605 428.134C246.605 428.65 246.833 429.034 247.289 429.286C247.745 429.55 248.315 429.682 248.999 429.682C249.659 429.682 250.193 429.538 250.601 429.25C251.009 428.974 251.213 428.602 251.213 428.134C251.213 427.786 251.075 427.486 250.799 427.234C250.523 426.994 250.001 426.844 249.233 426.784C248.657 426.748 248.147 426.694 247.703 426.622C247.283 426.85 246.995 427.096 246.839 427.36C246.683 427.624 246.605 427.882 246.605 428.134ZM259.259 427.216C258.383 427.216 257.603 427.024 256.919 426.64C256.247 426.244 255.719 425.698 255.335 425.002C254.951 424.306 254.759 423.496 254.759 422.572C254.759 421.636 254.945 420.814 255.317 420.106C255.701 419.398 256.229 418.846 256.901 418.45C257.585 418.054 258.377 417.856 259.277 417.856C260.153 417.856 260.915 418.054 261.563 418.45C262.211 418.834 262.715 419.35 263.075 419.998C263.435 420.646 263.615 421.36 263.615 422.14C263.615 422.26 263.609 422.392 263.597 422.536C263.597 422.668 263.591 422.818 263.579 422.986H256.631C256.691 423.85 256.973 424.51 257.477 424.966C257.993 425.41 258.587 425.632 259.259 425.632C259.799 425.632 260.249 425.512 260.609 425.272C260.981 425.02 261.257 424.684 261.437 424.264H263.345C263.105 425.104 262.625 425.806 261.905 426.37C261.197 426.934 260.315 427.216 259.259 427.216ZM259.259 419.422C258.623 419.422 258.059 419.614 257.567 419.998C257.075 420.37 256.775 420.934 256.667 421.69H261.707C261.671 420.994 261.425 420.442 260.969 420.034C260.513 419.626 259.943 419.422 259.259 419.422ZM265.595 427V418.072H267.287L267.431 419.638C267.707 419.086 268.109 418.654 268.637 418.342C269.177 418.018 269.795 417.856 270.491 417.856C271.571 417.856 272.417 418.192 273.029 418.864C273.653 419.536 273.965 420.538 273.965 421.87V427H272.075V422.068C272.075 420.34 271.367 419.476 269.951 419.476C269.243 419.476 268.655 419.728 268.187 420.232C267.731 420.736 267.503 421.456 267.503 422.392V427H265.595ZM280.388 427.216C279.512 427.216 278.732 427.024 278.048 426.64C277.376 426.244 276.848 425.698 276.464 425.002C276.08 424.306 275.888 423.496 275.888 422.572C275.888 421.636 276.074 420.814 276.446 420.106C276.83 419.398 277.358 418.846 278.03 418.45C278.714 418.054 279.506 417.856 280.406 417.856C281.282 417.856 282.044 418.054 282.692 418.45C283.34 418.834 283.844 419.35 284.204 419.998C284.564 420.646 284.744 421.36 284.744 422.14C284.744 422.26 284.738 422.392 284.726 422.536C284.726 422.668 284.72 422.818 284.708 422.986H277.76C277.82 423.85 278.102 424.51 278.606 424.966C279.122 425.41 279.716 425.632 280.388 425.632C280.928 425.632 281.378 425.512 281.738 425.272C282.11 425.02 282.386 424.684 282.566 424.264H284.474C284.234 425.104 283.754 425.806 283.034 426.37C282.326 426.934 281.444 427.216 280.388 427.216ZM280.388 419.422C279.752 419.422 279.188 419.614 278.696 419.998C278.204 420.37 277.904 420.934 277.796 421.69H282.836C282.8 420.994 282.554 420.442 282.098 420.034C281.642 419.626 281.072 419.422 280.388 419.422ZM286.724 427V418.072H288.434L288.596 419.764C288.908 419.176 289.34 418.714 289.892 418.378C290.456 418.03 291.134 417.856 291.926 417.856V419.854H291.404C290.876 419.854 290.402 419.944 289.982 420.124C289.574 420.292 289.244 420.586 288.992 421.006C288.752 421.414 288.632 421.984 288.632 422.716V427H286.724ZM294.641 416.38C294.281 416.38 293.981 416.272 293.741 416.056C293.513 415.828 293.399 415.546 293.399 415.21C293.399 414.874 293.513 414.598 293.741 414.382C293.981 414.154 294.281 414.04 294.641 414.04C295.001 414.04 295.295 414.154 295.523 414.382C295.763 414.598 295.883 414.874 295.883 415.21C295.883 415.546 295.763 415.828 295.523 416.056C295.295 416.272 295.001 416.38 294.641 416.38ZM293.687 427V418.072H295.595V427H293.687ZM302.344 427.216C301.468 427.216 300.682 427.018 299.986 426.622C299.302 426.226 298.762 425.68 298.366 424.984C297.982 424.276 297.79 423.46 297.79 422.536C297.79 421.612 297.982 420.802 298.366 420.106C298.762 419.398 299.302 418.846 299.986 418.45C300.682 418.054 301.468 417.856 302.344 417.856C303.448 417.856 304.372 418.144 305.116 418.72C305.872 419.296 306.358 420.076 306.574 421.06H304.576C304.456 420.568 304.192 420.184 303.784 419.908C303.376 419.632 302.896 419.494 302.344 419.494C301.876 419.494 301.444 419.614 301.048 419.854C300.652 420.082 300.334 420.424 300.094 420.88C299.854 421.324 299.734 421.876 299.734 422.536C299.734 423.196 299.854 423.754 300.094 424.21C300.334 424.654 300.652 424.996 301.048 425.236C301.444 425.476 301.876 425.596 302.344 425.596C302.896 425.596 303.376 425.458 303.784 425.182C304.192 424.906 304.456 424.516 304.576 424.012H306.574C306.37 424.972 305.89 425.746 305.134 426.334C304.378 426.922 303.448 427.216 302.344 427.216ZM316.923 427C316.047 427 315.351 426.79 314.835 426.37C314.319 425.938 314.061 425.176 314.061 424.084V419.674H312.531V418.072H314.061L314.295 415.804H315.969V418.072H318.489V419.674H315.969V424.084C315.969 424.576 316.071 424.918 316.275 425.11C316.491 425.29 316.857 425.38 317.373 425.38H318.399V427H316.923ZM324.403 427.216C323.527 427.216 322.747 427.024 322.063 426.64C321.391 426.244 320.863 425.698 320.479 425.002C320.095 424.306 319.903 423.496 319.903 422.572C319.903 421.636 320.089 420.814 320.461 420.106C320.845 419.398 321.373 418.846 322.045 418.45C322.729 418.054 323.521 417.856 324.421 417.856C325.297 417.856 326.059 418.054 326.707 418.45C327.355 418.834 327.859 419.35 328.219 419.998C328.579 420.646 328.759 421.36 328.759 422.14C328.759 422.26 328.753 422.392 328.741 422.536C328.741 422.668 328.735 422.818 328.723 422.986H321.775C321.835 423.85 322.117 424.51 322.621 424.966C323.137 425.41 323.731 425.632 324.403 425.632C324.943 425.632 325.393 425.512 325.753 425.272C326.125 425.02 326.401 424.684 326.581 424.264H328.489C328.249 425.104 327.769 425.806 327.049 426.37C326.341 426.934 325.459 427.216 324.403 427.216ZM324.403 419.422C323.767 419.422 323.203 419.614 322.711 419.998C322.219 420.37 321.919 420.934 321.811 421.69H326.851C326.815 420.994 326.569 420.442 326.113 420.034C325.657 419.626 325.087 419.422 324.403 419.422ZM330.739 427V418.072H332.449L332.611 419.764C332.923 419.176 333.355 418.714 333.907 418.378C334.471 418.03 335.149 417.856 335.941 417.856V419.854H335.419C334.891 419.854 334.417 419.944 333.997 420.124C333.589 420.292 333.259 420.586 333.007 421.006C332.767 421.414 332.647 421.984 332.647 422.716V427H330.739ZM337.577 427V418.072H339.269L339.431 419.332C339.719 418.876 340.097 418.516 340.565 418.252C341.045 417.988 341.597 417.856 342.221 417.856C343.637 417.856 344.621 418.414 345.173 419.53C345.497 419.014 345.929 418.606 346.469 418.306C347.021 418.006 347.615 417.856 348.251 417.856C349.367 417.856 350.243 418.192 350.879 418.864C351.515 419.536 351.833 420.538 351.833 421.87V427H349.925V422.068C349.925 420.34 349.265 419.476 347.945 419.476C347.273 419.476 346.721 419.728 346.289 420.232C345.869 420.736 345.659 421.456 345.659 422.392V427H343.751V422.068C343.751 420.34 343.085 419.476 341.753 419.476C341.093 419.476 340.547 419.728 340.115 420.232C339.695 420.736 339.485 421.456 339.485 422.392V427H337.577Z" fill="#9E9E9E"/>
<path d="M194.701 298.846C258.049 298.846 309.402 247.492 309.402 184.145C309.402 120.797 258.049 69.4436 194.701 69.4436C131.353 69.4436 79.9999 120.797 79.9999 184.145C79.9999 247.492 131.353 298.846 194.701 298.846Z" fill="white"/>
<path d="M256.581 96.134H129.517C121.597 96.134 115.176 102.555 115.176 110.475H270.922C270.922 102.555 264.501 96.134 256.581 96.134Z" fill="#FF6347" fill-opacity="0.8"/>
<path d="M115.176 110.083H270.922V228.701C270.922 233.975 268.827 239.033 265.098 242.762C261.369 246.491 256.311 248.586 251.037 248.586H135.061C129.787 248.586 124.73 246.491 121 242.762C117.271 239.033 115.176 233.975 115.176 228.701V110.083Z" fill="white"/>
<path d="M244.15 125.065H141.998C139.871 125.065 138.146 126.788 138.146 128.913C138.146 131.038 139.871 132.761 141.998 132.761H244.15C246.278 132.761 248.002 131.038 248.002 128.913C248.002 126.788 246.278 125.065 244.15 125.065Z" fill="#FF6347" fill-opacity="0.8"/>
<path d="M244.15 157.761H141.998C139.871 157.761 138.146 159.484 138.146 161.609C138.146 163.734 139.871 165.457 141.998 165.457H244.15C246.278 165.457 248.002 163.734 248.002 161.609C248.002 159.484 246.278 157.761 244.15 157.761Z" fill="#FF6347" fill-opacity="0.8"/>
<path d="M244.15 190.456H141.998C139.871 190.456 138.146 192.179 138.146 194.304C138.146 196.429 139.871 198.152 141.998 198.152H244.15C246.278 198.152 248.002 196.429 248.002 194.304C248.002 192.179 246.278 190.456 244.15 190.456Z" fill="#FF6347" fill-opacity="0.8"/>
<path d="M244.15 223.152H141.998C139.871 223.152 138.146 224.875 138.146 227C138.146 229.125 139.871 230.847 141.998 230.847H244.15C246.278 230.847 248.002 229.125 248.002 227C248.002 224.875 246.278 223.152 244.15 223.152Z" fill="#FF6347" fill-opacity="0.8"/>
<g filter="url(#filter0_d_5_1038)">
<path d="M141.307 183.444H86.9122C82.5424 183.444 78.9999 186.986 78.9999 191.356V269.104C78.9999 273.474 82.5424 277.016 86.9122 277.016H141.307C145.676 277.016 149.219 273.474 149.219 269.104V191.356C149.219 186.986 145.676 183.444 141.307 183.444Z" fill="white"/>
</g>
<g filter="url(#filter1_d_5_1038)">
<path d="M296.15 62H236.069C233.269 62 231 64.2696 231 67.0692V95.3086C231 98.1083 233.269 100.378 236.069 100.378H296.15C298.949 100.378 301.219 98.1083 301.219 95.3086V67.0692C301.219 64.2696 298.949 62 296.15 62Z" fill="white"/>
</g>
<path d="M135.237 222.338H92.9819C91.5591 222.338 90.4056 223.492 90.4056 224.915V224.923C90.4056 226.346 91.5591 227.499 92.9819 227.499H135.237C136.66 227.499 137.813 226.346 137.813 224.923V224.915C137.813 223.492 136.66 222.338 135.237 222.338Z" fill="#FF6347" fill-opacity="0.8"/>
<path d="M135.261 258.653H93.3691C91.9585 258.653 90.8149 259.771 90.8149 261.149V261.157C90.8149 262.536 91.9585 263.653 93.3691 263.653H135.261C136.671 263.653 137.815 262.536 137.815 261.157V261.149C137.815 259.771 136.671 258.653 135.261 258.653Z" fill="#FF6347" fill-opacity="0.8"/>
<path d="M135.261 239.653H93.3691C91.9585 239.653 90.8149 240.771 90.8149 242.149V242.157C90.8149 243.536 91.9585 244.653 93.3691 244.653H135.261C136.671 244.653 137.815 243.536 137.815 242.157V242.149C137.815 240.771 136.671 239.653 135.261 239.653Z" fill="#FF6347" fill-opacity="0.8"/>
<path d="M108.432 195.45H96.0837C93.3485 195.45 91.1312 197.667 91.1312 200.402V203.829C91.1312 206.564 93.3485 208.782 96.0837 208.782H108.432C111.167 208.782 113.384 206.564 113.384 203.829V200.402C113.384 197.667 111.167 195.45 108.432 195.45Z" fill="#FF6347" fill-opacity="0.8"/>
<path d="M245.828 87.0127C249.047 87.0127 251.656 84.4034 251.656 81.1847C251.656 77.966 249.047 75.3568 245.828 75.3568C242.609 75.3568 240 77.966 240 81.1847C240 84.4034 242.609 87.0127 245.828 87.0127Z" fill="#FF6347" fill-opacity="0.8"/>
<path d="M266.655 87.0127C269.874 87.0127 272.483 84.4034 272.483 81.1847C272.483 77.966 269.874 75.3568 266.655 75.3568C263.436 75.3568 260.827 77.966 260.827 81.1847C260.827 84.4034 263.436 87.0127 266.655 87.0127Z" fill="#FF6347" fill-opacity="0.8"/>
<path d="M287.482 87.0127C290.701 87.0127 293.31 84.4034 293.31 81.1847C293.31 77.966 290.701 75.3568 287.482 75.3568C284.263 75.3568 281.654 77.966 281.654 81.1847C281.654 84.4034 284.263 87.0127 287.482 87.0127Z" fill="#FF6347" fill-opacity="0.8"/>
<path d="M271.681 226.017L256.92 242.289L298.525 280.027L313.285 263.754L271.681 226.017Z" fill="#FF6347" fill-opacity="0.8"/>
<path fill-rule="evenodd" clip-rule="evenodd" d="M287.279 199.083C287.279 233.126 259.682 260.723 225.64 260.723C191.597 260.723 164 233.126 164 199.083C164 165.041 191.597 137.444 225.64 137.444C259.682 137.444 287.279 165.041 287.279 199.083ZM277.824 199.083C277.824 227.904 254.46 251.268 225.639 251.268C196.818 251.268 173.454 227.904 173.454 199.083C173.454 170.262 196.818 146.898 225.639 146.898C254.46 146.898 277.824 170.262 277.824 199.083Z" fill="#FF6347" fill-opacity="0.8"/>
<g filter="url(#filter2_b_5_1038)">
<path d="M225.64 251.268C254.461 251.268 277.825 227.904 277.825 199.083C277.825 170.262 254.461 146.898 225.64 146.898C196.819 146.898 173.455 170.262 173.455 199.083C173.455 227.904 196.819 251.268 225.64 251.268Z" fill="white" fill-opacity="0.2"/>
</g>
<path d="M238.179 199.083L253.104 184.126C254.502 182.646 255.268 180.679 255.239 178.644C255.21 176.608 254.389 174.664 252.949 173.224C251.51 171.785 249.565 170.963 247.53 170.935C245.494 170.906 243.528 171.672 242.048 173.07L227.09 188.028L212.166 173.07C211.448 172.31 210.585 171.702 209.627 171.281C208.67 170.86 207.638 170.636 206.592 170.621C205.547 170.607 204.509 170.802 203.54 171.195C202.571 171.588 201.691 172.172 200.952 172.911C200.212 173.651 199.629 174.531 199.235 175.5C198.842 176.468 198.647 177.506 198.662 178.552C198.677 179.598 198.901 180.63 199.322 181.587C199.742 182.544 200.35 183.407 201.11 184.126L216.06 199.083L201.11 214.041C200.35 214.759 199.742 215.622 199.322 216.58C198.901 217.537 198.677 218.569 198.662 219.615C198.647 220.66 198.842 221.698 199.235 222.667C199.629 223.636 200.212 224.516 200.952 225.255C201.691 225.995 202.571 226.578 203.54 226.972C204.509 227.365 205.547 227.56 206.592 227.545C207.638 227.53 208.67 227.306 209.627 226.885C210.585 226.465 211.448 225.857 212.166 225.096L227.124 210.139L242.081 225.096C243.575 226.412 245.514 227.109 247.504 227.044C249.493 226.98 251.383 226.159 252.789 224.749C254.194 223.34 255.009 221.447 255.068 219.457C255.126 217.468 254.424 215.531 253.104 214.041L238.179 199.083Z" fill="#FF6347" fill-opacity="0.8"/>
<g filter="url(#filter3_f_5_1038)">
<ellipse cx="227.365" cy="227.906" rx="36.6853" ry="5.41942" fill="#FF6347" fill-opacity="0.56"/>
</g>
<path d="M184.968 263.905C185.486 261.761 188.535 261.761 189.053 263.905L190.795 271.121C190.98 271.887 191.578 272.485 192.344 272.67L199.56 274.412C201.704 274.929 201.704 277.979 199.56 278.497L192.344 280.239C191.578 280.423 190.98 281.022 190.795 281.788L189.053 289.004C188.535 291.148 185.486 291.148 184.968 289.004L183.226 281.788C183.041 281.022 182.443 280.423 181.677 280.239L174.461 278.497C172.317 277.979 172.317 274.929 174.461 274.412L181.677 272.67C182.443 272.485 183.041 271.887 183.226 271.121L184.968 263.905Z" fill="#FF6347" fill-opacity="0.8"/>
<path d="M101.968 71.9044C102.485 69.7603 105.535 69.7603 106.053 71.9043L107.795 79.1204C107.979 79.8865 108.578 80.4848 109.344 80.6697L116.56 82.4116C118.704 82.9292 118.704 85.9788 116.56 86.4964L109.344 88.2383C108.578 88.4232 107.979 89.0215 107.795 89.7876L106.053 97.0036C105.535 99.1477 102.485 99.1477 101.968 97.0037L100.226 89.7876C100.041 89.0215 99.4428 88.4232 98.6766 88.2383L91.4606 86.4964C89.3166 85.9788 89.3166 82.9292 91.4606 82.4116L98.6766 80.6697C99.4428 80.4848 100.041 79.8865 100.226 79.1204L101.968 71.9044Z" fill="#FF6347" fill-opacity="0.8"/>
<path fill-rule="evenodd" clip-rule="evenodd" d="M190.128 73.0734C192.062 73.0734 193.63 71.5056 193.63 69.5716C193.63 67.6377 192.062 66.0699 190.128 66.0699C188.194 66.0699 186.626 67.6377 186.626 69.5716C186.626 71.5056 188.194 73.0734 190.128 73.0734ZM190.128 75.6997C193.512 75.6997 196.256 72.9561 196.256 69.5716C196.256 66.1872 193.512 63.4436 190.128 63.4436C186.743 63.4436 184 66.1872 184 69.5716C184 72.9561 186.743 75.6997 190.128 75.6997Z" fill="#FF6347" fill-opacity="0.8"/>
<path d="M299.014 169.497C298.681 168.191 299.887 167.014 301.185 167.379L309.943 169.84C311.241 170.205 311.657 171.837 310.692 172.779L304.181 179.133C303.217 180.074 301.595 179.619 301.262 178.313L299.014 169.497Z" fill="#FF6347" fill-opacity="0.8"/>
<path d="M93.7127 154.462C95.0192 154.131 96.1944 155.338 95.828 156.635L93.3554 165.39C92.9891 166.687 91.356 167.101 90.4159 166.136L84.0699 159.617C83.1297 158.651 83.5876 157.03 84.8941 156.698L93.7127 154.462Z" fill="#FF6347" fill-opacity="0.8"/>
<path d="M260.713 275.462C262.019 275.131 263.194 276.338 262.828 277.635L260.356 286.391C259.989 287.688 258.356 288.102 257.416 287.136L251.07 280.617C250.13 279.651 250.588 278.03 251.894 277.699L260.713 275.462Z" fill="#FF6347" fill-opacity="0.8"/>
<path fill-rule="evenodd" clip-rule="evenodd" d="M307.128 124.073C309.062 124.073 310.63 122.506 310.63 120.572C310.63 118.638 309.062 117.07 307.128 117.07C305.194 117.07 303.626 118.638 303.626 120.572C303.626 122.506 305.194 124.073 307.128 124.073ZM307.128 126.7C310.512 126.7 313.256 123.956 313.256 120.572C313.256 117.187 310.512 114.444 307.128 114.444C303.743 114.444 301 117.187 301 120.572C301 123.956 303.743 126.7 307.128 126.7Z" fill="#FF6347" fill-opacity="0.8"/>
<path d="M298.522 280.029L313.282 263.756L315.505 265.773C317.662 267.729 318.954 270.463 319.096 273.372C319.237 276.28 318.218 279.126 316.261 281.283C314.305 283.44 311.571 284.732 308.662 284.874C305.754 285.015 302.908 283.996 300.751 282.039L298.527 280.023L298.522 280.029Z" fill="#FF6347" fill-opacity="0.8"/>
<defs>
<filter id="filter0_d_5_1038" x="66.9999" y="175.444" width="100.219" height="123.573" filterUnits="userSpaceOnUse" color-interpolation-filters="sRGB">
<feFlood flood-opacity="0" result="BackgroundImageFix"/>
<feColorMatrix in="SourceAlpha" type="matrix" values="0 0 0 0 0 0 0 0 0 0 0 0 0 0 0 0 0 0 127 0" result="hardAlpha"/>
<feOffset dx="3" dy="7"/>
<feGaussianBlur stdDeviation="7.5"/>
<feComposite in2="hardAlpha" operator="out"/>
<feColorMatrix type="matrix" values="0 0 0 0 0.104618 0 0 0 0 0.465612 0 0 0 0 0.545833 0 0 0 0.15 0"/>
<feBlend mode="normal" in2="BackgroundImageFix" result="effect1_dropShadow_5_1038"/>
<feBlend mode="normal" in="SourceGraphic" in2="effect1_dropShadow_5_1038" result="shape"/>
</filter>
<filter id="filter1_d_5_1038" x="224" y="53" width="96.219" height="64.3778" filterUnits="userSpaceOnUse" color-interpolation-filters="sRGB">
<feFlood flood-opacity="0" result="BackgroundImageFix"/>
<feColorMatrix in="SourceAlpha" type="matrix" values="0 0 0 0 0 0 0 0 0 0 0 0 0 0 0 0 0 0 127 0" result="hardAlpha"/>
<feOffset dx="6" dy="4"/>
<feGaussianBlur stdDeviation="6.5"/>
<feComposite in2="hardAlpha" operator="out"/>
<feColorMatrix type="matrix" values="0 0 0 0 0.104618 0 0 0 0 0.465612 0 0 0 0 0.545833 0 0 0 0.09 0"/>
<feBlend mode="normal" in2="BackgroundImageFix" result="effect1_dropShadow_5_1038"/>
<feBlend mode="normal" in="SourceGraphic" in2="effect1_dropShadow_5_1038" result="shape"/>
</filter>
<filter id="filter2_b_5_1038" x="156.78" y="130.223" width="137.72" height="137.72" filterUnits="userSpaceOnUse" color-interpolation-filters="sRGB">
<feFlood flood-opacity="0" result="BackgroundImageFix"/>
<feGaussianBlur in="BackgroundImageFix" stdDeviation="8.33757"/>
<feComposite in2="SourceAlpha" operator="in" result="effect1_backgroundBlur_5_1038"/>
<feBlend mode="normal" in="SourceGraphic" in2="effect1_backgroundBlur_5_1038" result="shape"/>
</filter>
<filter id="filter3_f_5_1038" x="169.836" y="201.643" width="115.058" height="52.5267" filterUnits="userSpaceOnUse" color-interpolation-filters="sRGB">
<feFlood flood-opacity="0" result="BackgroundImageFix"/>
<feBlend mode="normal" in="SourceGraphic" in2="BackgroundImageFix" result="shape"/>
<feGaussianBlur stdDeviation="10.422" result="effect1_foregroundBlur_5_1038"/>
</filter>
</defs>
</svg>
